# xmcd
#
# Track frame offsets:
#	150
#	12582
#	22076
#	34461
#	49194
#	62602
#	74782
#	88762
#	99002
#	110704
#
# Disc length: 1633 seconds
#
# Revision: 1
# Processed by: cddbd v1.5.2PL0 Copyright (c) Steve Scherf et al.
# Submitted via: EasyCDDAExtractor 10.0.2.1
#
DISCID=8e065f0a
DTITLE=Johnny Paycheck - The Best of Johnny Paycheck
DYEAR=1996
DGENRE=Country
TTITLE0=Take This Job and Shove It
TTITLE1=Mr. Lovemaker
TTITLE2=(Don't Take Her) She's All I Got
TTITLE3=Someone to Give My Love To
TTITLE4=Slide off of Your Satin Sheets
TTITLE5=Song and Dance Man
TTITLE6=I'm the Only Hell (Mama Ever Raised)
TTITLE7=Motel Time Again
TTITLE8=For a Minute There
TTITLE9=Something About You I Love
EXTD=
EXTT0=
EXTT1=
EXTT2=
EXTT3=
EXTT4=
EXTT5=
EXTT6=
EXTT7=
EXTT8=
EXTT9=
PLAYORDER=
